<?xml version="1.0" encoding="UTF-8" standalone="no"?>
<!-- Generator: Adobe Illustrator 18.0.0, SVG Export Plug-In . SVG Version: 6.00 Build 0)  -->

<svg
   xmlns:dc="http://purl.org/dc/elements/1.1/"
   xmlns:cc="http://creativecommons.org/ns#"
   xmlns:rdf="http://www.w3.org/1999/02/22-rdf-syntax-ns#"
   xmlns:svg="http://www.w3.org/2000/svg"
   xmlns="http://www.w3.org/2000/svg"
   xmlns:xlink="http://www.w3.org/1999/xlink"
   xmlns:sodipodi="http://sodipodi.sourceforge.net/DTD/sodipodi-0.dtd"
   xmlns:inkscape="http://www.inkscape.org/namespaces/inkscape"
   version="1.0"
   id="Layer_1"
   x="0px"
   y="0px"
   viewBox="0 0 312.8 63.8"
   enable-background="new 0 0 312.8 63.8"
   xml:space="preserve"
   sodipodi:docname="askanexpertpopnew-v1.svg"
   inkscape:version="0.92.3 (2405546, 2018-03-11)"><metadata
   id="metadata53"><rdf:RDF><cc:Work
       rdf:about=""><dc:format>image/svg+xml</dc:format><dc:type
         rdf:resource="http://purl.org/dc/dcmitype/StillImage" /></cc:Work></rdf:RDF></metadata><defs
   id="defs51" /><sodipodi:namedview
   pagecolor="#ffffff"
   bordercolor="#666666"
   borderopacity="1"
   objecttolerance="10"
   gridtolerance="10"
   guidetolerance="10"
   inkscape:pageopacity="0"
   inkscape:pageshadow="2"
   inkscape:window-width="1366"
   inkscape:window-height="706"
   id="namedview49"
   showgrid="false"
   inkscape:zoom="2.99"
   inkscape:cx="167.08473"
   inkscape:cy="31.9"
   inkscape:window-x="-8"
   inkscape:window-y="-8"
   inkscape:window-maximized="1"
   inkscape:current-layer="Layer_1" />
<g
   id="g8">
	<defs
   id="defs3">
		<rect
   id="SVGID_10_"
   x="-1728.2"
   y="-53.7"
   width="1500"
   height="364.6" />
	</defs>
	<clipPath
   id="SVGID_2_">
		<use
   xlink:href="#SVGID_10_"
   overflow="visible"
   id="use5" />
	</clipPath>
</g>
<g
   id="g46">
	<g
   id="g12">
		<path
   fill="#FFFFFF"
   d="M301.3,16.4c-20.3-2.9-40.7-5.2-61.2-6.9c-66.2-5.4-132.8-4.4-199,3.1c-9.7,1.1-19.3,2.3-29,3.7    c6.6,6.3,13,12.7,19.3,19.2c-4.6,7.8-9,15.7-13.3,23.6c9.3-1.4,18.5-2.5,27.9-3.5c63.3-7.2,127.2-8.1,190.6-3    c19.6,1.6,39.1,3.7,58.6,6.6c-4.4-7.9-8.7-15.7-13.3-23.6C288.3,29.1,294.8,22.8,301.3,16.4z"
   id="path10" />
	</g>
	<g
   id="g16">
		<path
   fill="#1EBCBD"
   d="M296.2,59.8l-0.9-0.1c-19.3-2.7-39.1-5-58.6-6.6c-26.5-2.2-53.5-3.2-80-3.2c-36.8,0-74,2.1-110.7,6.2    c-9.3,1-18.6,2.2-27.8,3.5l-0.9,0.1l0.5-0.8c4.3-7.8,8.7-15.6,13.2-23.3C24.9,29.3,18.4,23,12,16.7l-0.8-0.6l0.9-0.1    c9.6-1.4,19.3-2.6,29-3.7c38.3-4.4,77.2-6.6,115.6-6.6c27.8,0,55.8,1.1,83.4,3.4c20.4,1.7,41,4,61.2,6.9l0.9,0.1l-0.7,0.7    c-6.4,6.2-12.9,12.6-19.1,18.9c4.5,7.7,8.9,15.5,13.2,23.3L296.2,59.8z M13.2,16.7c6.3,6.1,12.6,12.3,18.7,18.5l0.3,0.3l-0.3,0.3    c-4.4,7.5-8.7,15.2-12.9,22.7c8.9-1.2,18-2.4,26.8-3.4c36.6-4.2,73.9-6.2,110.8-6.2c26.6,0,53.5,1.1,80,3.2    c19.2,1.6,38.6,3.7,57.6,6.4c-4.2-7.6-8.5-15.2-12.9-22.7l-0.2-0.3l0.3-0.3c6.1-6.2,12.4-12.5,18.6-18.5    c-19.9-2.8-40.1-5.1-60.1-6.7c-27.7-2.3-55.6-3.4-83.4-3.4c-38.4,0-77.3,2.2-115.4,6.6C31.9,14.2,22.6,15.5,13.2,16.7z"
   id="path14"
   style="fill:#18254f;fill-opacity:1" />
	</g>
	<g
   id="g42">
		<g
   id="g40">
			<path
   fill="#1EBCBD"
   d="M96,36.1c-0.6-1.4-1.2-2.8-1.9-4.2c-2,0.1-4.1,0.2-6,0.4c-0.4,1.5-0.8,2.9-1.2,4.4     c-0.9,0.1-1.8,0.1-2.7,0.2c1.6-5.3,3.2-10.6,4.9-15.9c0.9-0.1,1.9-0.1,2.8-0.2c2.3,5.1,4.6,10.1,6.9,15.2     C97.9,36,96.9,36.1,96,36.1z M93.3,29.7c-0.6-1.4-1.1-2.7-1.8-4.2c-0.1-0.3-0.3-0.7-0.5-1.4c-0.2-0.6-0.4-1-0.5-1.4     c-0.1,1-0.3,2-0.6,3.1c-0.4,1.4-0.7,2.7-1.1,4.2C90.3,29.9,91.9,29.8,93.3,29.7z"
   id="path18"
   style="fill:#18254f;fill-opacity:1" />
			<path
   fill="#1EBCBD"
   d="M108.4,32.1c0.1,1.1-0.3,2.1-1.1,2.7s-2,1-3.6,1.1c-1.6,0.1-2.9-0.1-3.8-0.5c0-0.7-0.1-1.5-0.1-2.2     c1.5,0.5,2.8,0.8,4,0.7c1.6-0.1,2.3-0.6,2.3-1.6c0-0.3-0.1-0.5-0.3-0.7c-0.2-0.2-0.5-0.4-0.9-0.5c-0.4-0.2-0.9-0.4-1.7-0.6     c-1.5-0.4-2.4-0.9-2.9-1.5c-0.5-0.5-0.8-1.1-0.8-2c-0.1-1,0.3-1.8,1.1-2.4c0.8-0.6,1.9-0.9,3.3-1c1.5-0.1,2.8,0.1,4.1,0.6     c-0.2,0.6-0.5,1.2-0.7,1.9c-1.4-0.4-2.4-0.6-3.3-0.6c-1.4,0.1-2,0.5-2,1.2c0,0.4,0.2,0.6,0.6,0.9c0.3,0.2,1.1,0.5,2.4,0.9     c1,0.3,1.8,0.6,2.2,0.9c0.4,0.3,0.8,0.6,1,1C108.2,31.1,108.4,31.5,108.4,32.1z"
   id="path20"
   style="fill:#18254f;fill-opacity:1" />
			<path
   fill="#1EBCBD"
   d="M113.5,29c0.4-0.6,0.9-1.2,1.4-1.9c1.1-1.4,2.3-2.6,3.4-4c0.9,0,2-0.1,2.9-0.1c-1.6,1.8-3.1,3.4-4.7,5.2     c1.8,2.2,3.5,4.4,5.4,6.6c-1,0-2,0.1-3,0.1c-1.4-1.7-2.7-3.3-4.1-5c-0.4,0.4-0.9,0.8-1.4,1.1c0.1,1.4,0.1,2.7,0.2,4.1     c-0.8,0-1.7,0.1-2.5,0.1c-0.2-5.5-0.5-11-0.7-16.5c0.8,0,1.7-0.1,2.5-0.1c0.1,2.7,0.2,5.4,0.3,8C113.4,27.4,113.4,28.3,113.5,29     C113.4,29,113.4,29,113.5,29z"
   id="path22"
   style="fill:#18254f;fill-opacity:1" />
			<path
   fill="#1EBCBD"
   d="M137.1,34.4c-0.2-0.5-0.3-1-0.5-1.7h-0.1c-0.5,0.7-1.1,1.2-1.7,1.5c-0.6,0.3-1.4,0.4-2.2,0.4     c-1.1,0-2.1-0.2-2.8-0.8c-0.6-0.6-1-1.5-1-2.6c0-1.2,0.4-2.2,1.2-2.8c0.9-0.6,2.3-1,4.2-1.1c0.7,0,1.4-0.1,2.1-0.1     c0-0.2,0-0.4,0-0.6c0-0.7-0.2-1.4-0.6-1.7c-0.4-0.3-0.9-0.5-1.7-0.5c-0.6,0-1.2,0.1-1.8,0.3c-0.5,0.2-1.1,0.4-1.7,0.6     c-0.3-0.6-0.6-1.1-0.8-1.8c0.6-0.3,1.4-0.6,2.1-0.8c0.7-0.2,1.5-0.3,2.2-0.3c1.6,0,2.7,0.3,3.5,0.9c0.8,0.6,1.2,1.7,1.2,3     c0,2.6,0.1,5.3,0.1,7.9C138.2,34.4,137.6,34.4,137.1,34.4z M133.2,32.9c0.9,0,1.7-0.3,2.2-0.8c0.5-0.5,0.8-1.2,0.8-2.2     c0-0.3,0-0.7,0-1c-0.5,0-1,0.1-1.6,0.1c-1.2,0.1-2.1,0.3-2.6,0.6c-0.5,0.3-0.8,0.9-0.7,1.7c0,0.5,0.2,0.9,0.5,1.2     C132.1,32.7,132.6,32.9,133.2,32.9z"
   id="path24"
   style="fill:#18254f;fill-opacity:1" />
			<path
   fill="#1EBCBD"
   d="M152.9,34.3c-0.8,0-1.7,0-2.5,0c0-2.4,0-4.8,0-7.2c0-0.9-0.2-1.6-0.6-2c-0.4-0.4-0.9-0.6-1.8-0.6     c-1,0-1.9,0.3-2.4,0.9c-0.5,0.6-0.7,1.7-0.7,3.1c0,2,0,3.8,0.1,5.8c-0.8,0-1.7,0-2.5,0c-0.1-4-0.1-7.8-0.2-11.8c0.6,0,1.4,0,2,0     c0.1,0.5,0.2,1,0.4,1.6h0.1c0.3-0.5,0.8-1,1.6-1.4c0.6-0.3,1.4-0.5,2.2-0.5c2.9,0,4.4,1.5,4.4,4.3     C152.8,29.2,152.8,31.7,152.9,34.3z"
   id="path26"
   style="fill:#18254f;fill-opacity:1" />
			<path
   fill="#1EBCBD"
   d="M171.3,34.4c-3,0-5.9-0.1-8.9-0.1c0-5.2,0.1-10.3,0.1-15.5c3,0,6,0,9,0.1c0,0.7,0,1.5,0,2.2     c-2.2,0-4.3-0.1-6.4-0.1c0,1.5,0,2.8,0,4.3c2,0,4,0,6,0.1c0,0.7,0,1.5,0,2.1c-2,0-4,0-5.9-0.1c0,1.7,0,3.2,0,4.9     c2.1,0,4.3,0,6.3,0.1C171.3,33,171.3,33.7,171.3,34.4z"
   id="path28"
   style="fill:#18254f;fill-opacity:1" />
			<path
   fill="#1EBCBD"
   d="M177.1,28.5c-1.4-2-2.6-3.8-4-5.8c0.9,0,2,0,2.9,0.1c0.9,1.4,1.8,2.8,2.7,4.2c0.9-1.4,1.9-2.7,2.8-4.1     c0.9,0,2,0,2.9,0.1c-1.4,1.9-2.8,3.7-4.2,5.6c1.4,2.1,2.7,4.1,4.1,6.1c-0.9,0-1.9,0-2.9-0.1c-0.9-1.5-1.9-3-2.8-4.5     c-1,1.5-2,2.9-3,4.4c-0.9,0-1.9,0-2.9,0C174.3,32.4,175.8,30.5,177.1,28.5z"
   id="path30"
   style="fill:#18254f;fill-opacity:1" />
			<path
   fill="#1EBCBD"
   d="M192.6,35.1c-1.5-0.1-2.7-0.6-3.4-1.8h-0.1c0.1,1,0.1,1.6,0.1,1.8c0,1.6-0.1,3.2-0.1,4.8     c-0.8,0-1.7-0.1-2.5-0.1c0.2-5.6,0.3-11.3,0.5-17c0.7,0,1.4,0,2.1,0.1c0,0.2,0.1,0.7,0.3,1.6h0.1c0.8-1.1,2.1-1.8,3.6-1.7     c1.5,0.1,2.7,0.6,3.4,1.8c0.8,1.1,1.1,2.6,1,4.5s-0.5,3.4-1.5,4.5C195.2,34.7,194.1,35.1,192.6,35.1z M192.3,24.9     c-1,0-1.8,0.2-2.3,0.8c-0.5,0.5-0.7,1.5-0.8,2.8c0,0.1,0,0.2,0,0.4c0,1.5,0.1,2.5,0.6,3.1c0.4,0.6,1.1,1,2.2,1     c0.8,0,1.6-0.3,2.1-0.9c0.5-0.7,0.7-1.7,0.8-3c0-1.4-0.1-2.3-0.6-3C193.9,25.4,193.3,25.1,192.3,24.9z"
   id="path32"
   style="fill:#18254f;fill-opacity:1" />
			<path
   fill="#1EBCBD"
   d="M205.4,35.7c-1.9-0.1-3.2-0.7-4.3-1.8c-1-1.1-1.5-2.6-1.4-4.5c0.1-1.9,0.6-3.4,1.7-4.5     c1-1,2.4-1.6,4.2-1.5c1.6,0.1,2.8,0.6,3.7,1.6c0.8,0.9,1.2,2.3,1.1,4c0,0.4,0,0.9-0.1,1.4c-2.7-0.1-5.3-0.3-8-0.4     c0,1.1,0.2,2.1,0.8,2.7c0.5,0.6,1.4,0.9,2.5,1c0.7,0,1.4,0,2-0.1c0.6-0.1,1.2-0.3,2-0.5c0,0.6-0.1,1.4-0.1,2     c-0.6,0.2-1.2,0.4-1.9,0.5C207,35.7,206.3,35.7,205.4,35.7z M205.5,25.4c-0.8,0-1.5,0.2-2,0.6c-0.5,0.5-0.8,1.2-0.9,2.2     c1.8,0.1,3.6,0.2,5.4,0.3c0-0.9-0.2-1.7-0.6-2.3C207,25.7,206.4,25.5,205.5,25.4z"
   id="path34"
   style="fill:#18254f;fill-opacity:1" />
			<path
   fill="#1EBCBD"
   d="M219.8,24.3c0.5,0,0.9,0.1,1.2,0.2c-0.1,0.7-0.3,1.6-0.4,2.3c-0.3-0.1-0.7-0.2-1.1-0.2     c-1-0.1-1.9,0.2-2.5,0.8c-0.6,0.6-1,1.5-1.1,2.5c-0.1,2.1-0.2,4.1-0.3,6.1c-0.8,0-1.7-0.1-2.5-0.1c0.2-4,0.4-7.8,0.6-11.8     c0.6,0,1.4,0.1,2,0.1c0.1,0.7,0.1,1.4,0.2,2.1h0.1c0.4-0.7,1-1.2,1.7-1.6C218.3,24.4,219,24.2,219.8,24.3z"
   id="path36"
   style="fill:#18254f;fill-opacity:1" />
			<path
   fill="#1EBCBD"
   d="M227.1,34.9c0.6,0,1.2,0,1.9-0.1c0,0.6-0.1,1.2-0.1,1.9c-0.3,0.1-0.6,0.2-1.1,0.2c-0.4,0-0.9,0.1-1.4,0     c-2.4-0.2-3.5-1.5-3.3-4c0.1-2.1,0.3-4.2,0.4-6.3c-0.5,0-1.1-0.1-1.7-0.1c0-0.4,0-0.7,0.1-1.1c0.6-0.3,1.2-0.5,1.9-0.8     c0.3-0.8,0.7-1.7,1-2.4c0.5,0,1,0.1,1.6,0.1c-0.1,0.8-0.1,1.8-0.2,2.6c1.1,0.1,2.3,0.2,3.4,0.2c0,0.6-0.1,1.2-0.1,1.9     c-1.1-0.1-2.3-0.2-3.4-0.2c-0.1,2.1-0.3,4.2-0.4,6.2c0,0.6,0.1,1,0.4,1.4C226.1,34.7,226.5,34.9,227.1,34.9z"
   id="path38"
   style="fill:#18254f;fill-opacity:1" />
		</g>
	</g>
	<rect
   x="0.8"
   y="4.2"
   fill="none"
   width="312"
   height="57.2"
   id="rect44" />
</g>
</svg>