<?xml version="1.0" encoding="UTF-8" standalone="no"?>
<!-- Generator: Adobe Illustrator 18.0.0, SVG Export Plug-In . SVG Version: 6.00 Build 0)  -->

<svg
   xmlns:dc="http://purl.org/dc/elements/1.1/"
   xmlns:cc="http://creativecommons.org/ns#"
   xmlns:rdf="http://www.w3.org/1999/02/22-rdf-syntax-ns#"
   xmlns:svg="http://www.w3.org/2000/svg"
   xmlns="http://www.w3.org/2000/svg"
   xmlns:xlink="http://www.w3.org/1999/xlink"
   xmlns:sodipodi="http://sodipodi.sourceforge.net/DTD/sodipodi-0.dtd"
   xmlns:inkscape="http://www.inkscape.org/namespaces/inkscape"
   version="1.0"
   id="Layer_1"
   x="0px"
   y="0px"
   viewBox="0 0 314.2 63.8"
   enable-background="new 0 0 314.2 63.8"
   xml:space="preserve"
   sodipodi:docname="askanexpertcallblue.svg"
   inkscape:version="0.92.3 (2405546, 2018-03-11)"><metadata
   id="metadata33"><rdf:RDF><cc:Work
       rdf:about=""><dc:format>image/svg+xml</dc:format><dc:type
         rdf:resource="http://purl.org/dc/dcmitype/StillImage" /><dc:title></dc:title></cc:Work></rdf:RDF></metadata><defs
   id="defs31" /><sodipodi:namedview
   pagecolor="#ffffff"
   bordercolor="#666666"
   borderopacity="1"
   objecttolerance="10"
   gridtolerance="10"
   guidetolerance="10"
   inkscape:pageopacity="0"
   inkscape:pageshadow="2"
   inkscape:window-width="716"
   inkscape:window-height="480"
   id="namedview29"
   showgrid="false"
   inkscape:zoom="0.90388284"
   inkscape:cx="193.50859"
   inkscape:cy="31.9"
   inkscape:window-x="0"
   inkscape:window-y="0"
   inkscape:window-maximized="0"
   inkscape:current-layer="Layer_1" />
<g
   id="g8">
	<defs
   id="defs3">
		<rect
   id="SVGID_10_"
   x="-1727"
   y="19.6"
   width="1500"
   height="364.6" />
	</defs>
	<clipPath
   id="SVGID_2_">
		<use
   xlink:href="#SVGID_10_"
   overflow="visible"
   id="use5" />
	</clipPath>
</g>
<g
   id="g26">
	<g
   id="g14">
		<path
   fill="#25292B"
   d="M102.8,31.3H2.6c-0.3,0-0.5,0.2-0.5,0.5c0,0.3,0.2,0.5,0.5,0.5h100.2V31.3z"
   id="path10" />
		<path
   fill="#25292B"
   d="M311.5,31.3H192.7v1h118.8c0.3,0,0.5-0.2,0.5-0.5C312,31.5,311.8,31.3,311.5,31.3z"
   id="path12" />
	</g>
	<g
   id="g24">
		<g
   id="g22">
			<path
   fill="#1EBCBD"
   d="M153.8,7.5c8.8,0.1,16.9,5.3,20.6,13.6c3.6,8.4,2,17.8-4,24.4l0.9,2.3c7.1-7.1,9.2-18,5.1-27.5     c-4.1-9.5-13.5-15.3-23.6-15L153.8,7.5z"
   id="path16"
   style="fill:#f69221;fill-opacity:1" />
			<path
   fill="#1EBCBD"
   d="M157.4,15.8c3.9,1.2,7.3,4.3,9.3,8.7c1.9,4.3,1.9,9,0,12.7l1.1,2.6c2.9-4.4,3.3-10.6,0.9-16.2     s-7.2-9.4-12.5-10.3L157.4,15.8z"
   id="path18"
   style="fill:#f69221;fill-opacity:0.95686275" />
			<path
   fill="#1EBCBD"
   d="M154.7,43.5c0,0-0.1,0.1-0.2,0.1l-3,1.8l-3,1.3c0.7,0.3,1.5,0.6,2.4,0.8l0.5,0.1c0.3,0.1,0.6,0,0.8-0.1     l3.3-1.9h0.1c1.8,0.6,5.4,4.3,7,8.2c0.8,2,0.8,3.1,0.7,3.3l-3.1,2.4c-0.2,0.1-0.4,0.2-0.6,0.3c-3.5,1.5-11.1-3.7-17.3-12l5-2.2     c0.6-0.5,2.1-2.1,1.5-4.1c-0.1-0.6-0.4-1.2-0.8-1.8c0.2-0.7,0.2-1.4,0.1-2.3c-0.2-0.8-0.6-1.7-1.2-2.3c0.3-0.8,0.4-1.8,0.2-2.7     c-0.2-0.8-0.6-1.7-1.2-2.2c0.3-0.8,0.4-1.8,0.2-2.7c-0.3-1.2-1.1-2.4-2.3-3c-1.1-0.6-2.6-0.7-3.8-0.2l-0.3,0.1     c0.1-1.2,0.5-2.4,1.1-3.6l0,0l3.4-1c0,0,0.1,0,0.2-0.1c0.4-0.2,0.8-0.6,1.1-1.2c1.2-2.8,0.4-8.9-1.2-12.6     c-1.2-2.9-2.8-4.3-4.4-4.1l-3.8,0.7c-0.4,0.1-0.8,0.2-1.1,0.3c-4.8,2.1-6.1,11.1-4.6,20.7c-1.5,0.6-4.2,2.9-8.2,10.6l-6.5,2.8     l0.4,1l0.4,1l0.2-0.1l7-3.1l0.2-0.3c3.3-6.4,5.4-8.7,6.5-9.5l0.9,4.5l9.7-4.2c0.6-0.2,1.2-0.2,1.8,0.1c0.6,0.3,1,0.8,1.1,1.5     c0.1,0.6,0,1.3-0.3,1.9l-0.6,0.9l1,0.6c0.5,0.3,0.9,0.8,1,1.4c0.1,0.6,0,1.3-0.3,1.9l-0.7,0.9l1,0.6c0.5,0.3,0.9,0.8,1,1.4     c0.1,0.5,0,1-0.2,1.5l-0.4,0.9l0.8,0.5c0.3,0.2,0.5,0.5,0.6,0.9c0.2,0.8-0.2,1.5-0.9,1.9l-9.7,4.2c-2.5,1-4.5,1-6.9,1     c-0.3,0-0.6,0-0.8,0h-0.2l-3.6,1.5l0.4,1l0.4,1l3.2-1.3c0.2,0,0.4,0,0.6,0c2.5,0,5,0,7.9-1.2l3.2-1.4     c6.4,8.9,14.9,15.4,20.2,13.1c0.4-0.2,0.7-0.4,1-0.6l3.1-2.4c1.2-0.9,1.2-3.1,0-6c-1.7-3.7-5.5-8.5-8.4-9.4     C155.7,43.4,155.2,43.3,154.7,43.5z M137.4,25.8l-4.2,1.9c-2.2-10.4-1.3-20.6,2.6-22.3c0.2-0.1,0.4-0.2,0.6-0.2l3.8-0.7     c0.2,0,1.1,0.8,2,2.8c1.7,3.8,2.1,9,1.2,10.7c0,0.1,0,0.1-0.1,0.1l-3.6,1.1c-0.3,0.1-0.5,0.3-0.6,0.5l-0.2,0.4     C137.9,22.1,137.5,24,137.4,25.8z"
   id="path20"
   style="fill:#f69221;fill-opacity:1" />
		</g>
	</g>
</g>
</svg>