<?xml version="1.0" encoding="utf-8"?>
<!-- Generator: Adobe Illustrator 22.0.1, SVG Export Plug-In . SVG Version: 6.00 Build 0)  -->
<!DOCTYPE svg PUBLIC "-//W3C//DTD SVG 1.1//EN" "http://www.w3.org/Graphics/SVG/1.1/DTD/svg11.dtd">
<svg version="1.1" id="Layer_1" xmlns="http://www.w3.org/2000/svg" xmlns:xlink="http://www.w3.org/1999/xlink" x="0px" y="0px"
	 viewBox="0 0 65.3 47" style="enable-background:new 0 0 65.3 47;" xml:space="preserve">
<style type="text/css">
	.st0{fill:#FFFFFF;stroke:#D4D5D5;stroke-miterlimit:10;}
	.st1{fill:#26BCBC;}
	.st2{fill:#00AAA8;}
</style>
<rect x="2.7" y="2.2" class="st0" width="59.9" height="42.7"/>
<g>
	<g>
		<path class="st1" d="M25.7,21.4c-0.3,0-0.6,0-0.8,0.1c-0.2,0-0.4,0.1-0.6,0.2c-0.2,0-0.4,0.1-0.5,0.1c0.1-0.8,0.1-1.7,0.2-2.5
			c0.1-0.5-0.2-0.9-0.7-1c0,0,0,0,0,0c-0.3,0-0.6,0-0.9,0v-0.3c0-0.3-0.2-0.7-0.5-0.7c-0.1,0-0.2,0-0.2,0l-0.6,0.1l-5.9,1v6
			c0,0.3-0.1,0.5-0.2,0.8c-0.1,0.3-0.1,0.5-0.2,0.8c0,0,0,0.1,0,0.1l3.2-6.2c0.2-0.4,0.6-0.6,1.1-0.5c0.4,0.1,0.7,0.5,0.7,0.9v8.2
			c0,0.5-0.5,0.9-1,0.8c-0.4,0-0.8-0.4-0.8-0.8v-4.2h-0.1l-2.5,4.7c-0.1,0.2-0.2,0.4-0.3,0.5c-0.2,0.3-0.6,0.5-1,0.4
			c-0.4-0.1-0.6-0.5-0.6-0.8v-7.3H13l-4.6,8.7c-0.2,0.5-0.8,0.7-1.2,0.5s-0.7-0.8-0.5-1.2c0,0,0-0.1,0.1-0.1c0.5-1,1-1.9,1.5-2.8
			l4.2-8l-5.3,0.8c-0.4,0.1-0.8,0.4-0.9,0.8v11.1C6.3,31.8,6.6,32,7,32h12.9c0.5,0,0.9-0.3,1-0.8L21,31h0.9c0.3,0,0.5-0.1,0.6-0.3
			c0.1-0.2,0.2-0.4,0.2-0.6c0.1-0.4,0.1-0.8,0.1-1.1c0.1-1.4,0.3-2.7,0.4-4.1c0-0.1,0.1-0.2,0.2-0.2c0,0,0,0,0,0
			c0.2,0,0.4-0.1,0.6-0.1c0.6-0.1,1.1-0.3,1.6-0.6c0.5-0.3,0.8-0.9,0.7-1.5C26.5,21.9,26.2,21.5,25.7,21.4z M22.9,19.2
			c-0.1,0.6-0.1,1.2-0.2,1.7c-0.1,1-0.2,2-0.3,3l-0.3,3c-0.1,0.8-0.2,1.7-0.3,2.5c0,0.3-0.3,0.5-0.6,0.5c-0.1,0-0.1,0-0.2,0
			l1.1-11.6c0.2,0.1,0.3,0.2,0.5,0.4C22.8,18.8,22.9,19,22.9,19.2L22.9,19.2z M25,23.4c-0.4,0-0.7-0.3-0.7-0.7c0,0,0,0,0,0
			c0-0.4,0.3-0.7,0.7-0.7l0,0c0.4,0,0.7,0.3,0.7,0.7S25.4,23.4,25,23.4L25,23.4L25,23.4z M25.4,22.7c0,0.3-0.2,0.5-0.5,0.5
			c-0.3,0-0.5-0.2-0.5-0.5c0-0.3,0.2-0.5,0.5-0.5C25.2,22.2,25.4,22.4,25.4,22.7z"/>
		<path class="st2" d="M7.3,31c-0.5-0.2-0.8-0.7-0.6-1.2c0-0.1,0.1-0.2,0.1-0.3c0.5-1,1-1.9,1.4-2.8l4.9-9.3
			c0.2-0.5,0.7-0.7,1.2-0.5c-0.5-0.2-1,0-1.3,0.5l-5,9.4c-0.5,1-1,1.9-1.5,2.9c-0.3,0.4-0.2,1,0.3,1.3c0.3,0.2,0.6,0.2,0.9,0.1
			C7.6,31.1,7.4,31.1,7.3,31L7.3,31z M17.7,19.8c0.2-0.3,0.5-0.5,0.9-0.5C18.3,19.2,17.9,19.4,17.7,19.8c-0.7,1.3-1.8,3.6-2.5,5
			L17.7,19.8z M18.6,29.3c-0.5,0-0.9-0.4-0.9-0.9l0,0v-4.2h-0.1h0.1v4.3C17.6,28.9,18,29.4,18.6,29.3c0.5,0.1,0.9-0.3,0.9-0.9v-0.1
			C19.5,28.9,19.1,29.3,18.6,29.3C18.6,29.3,18.5,29.3,18.6,29.3L18.6,29.3z M19.4,20.1C19.4,20.2,19.4,20.2,19.4,20.1L19.4,20.1z
			 M13.7,29.8c-0.4-0.1-0.6-0.5-0.6-0.8v-7.3H13V29C13,29.4,13.3,29.8,13.7,29.8c0.3,0.2,0.6,0.1,0.8-0.2
			C14.4,29.8,14,29.9,13.7,29.8z"/>
	</g>
	<g>
		<path class="st1" d="M59.2,31c-0.4,0-0.8,0-1.3,0c-0.2,0-0.3-0.1-0.4-0.2c-0.4-0.7-0.8-1.4-1.2-2.1c-0.1-0.1-0.1-0.2-0.2,0
			c-0.1,0.1-0.2,0.2-0.3,0.3c-0.3,0.2-0.3,0.5-0.3,0.8c0,0.3,0,0.7,0,1c0,0.2-0.1,0.2-0.2,0.2c-0.3,0-0.6,0-0.9,0
			c-0.2,0-0.2-0.1-0.2-0.2c0-0.7,0-1.4,0-2.1c0-1.7,0-3.4,0-5.1c0-0.3,0-0.3,0.4-0.3c0.2,0,0.5,0,0.7,0c0.2,0,0.3,0,0.3,0.3
			c0,1.3,0,2.7,0,4c0,0.1,0,0.2,0,0.3c0.2-0.3,0.4-0.5,0.6-0.7c0.4-0.5,0.9-1,1.3-1.6c0.1-0.1,0.1-0.1,0.2-0.1c0.4,0,0.8,0,1.2,0
			c0,0,0.1,0,0.1,0c0,0.1,0,0.1-0.1,0.1c-0.6,0.7-1.2,1.3-1.7,2c-0.1,0.1-0.2,0.2-0.1,0.4c0.6,1,1.2,2,1.8,3
			C59.1,30.8,59.1,30.8,59.2,31C59.2,30.9,59.2,30.9,59.2,31z"/>
		<path class="st1" d="M49.3,29c0.1-0.3,0.1-0.5,0.2-0.7c0.3-0.9,0.5-1.9,0.8-2.8c0.1-0.2,0.1-0.3,0.3-0.3c0.3,0,0.6,0,0.8,0
			c0.2,0,0.2,0,0.2,0.2c-0.3,1.2-0.7,2.3-1,3.5c-0.2,0.6-0.4,1.3-0.6,1.9c0,0.2-0.1,0.2-0.3,0.2c-0.3,0-0.5,0-0.8,0
			c-0.2,0-0.3,0-0.3-0.2c-0.3-1.1-0.6-2.1-0.9-3.2c0-0.1-0.1-0.2-0.1-0.4c-0.2,0.6-0.3,1.1-0.5,1.6c-0.2,0.7-0.4,1.3-0.6,2
			c0,0.1-0.1,0.2-0.3,0.2c-0.3,0-0.5,0-0.8,0c-0.2,0-0.2-0.1-0.3-0.2c-0.3-0.9-0.5-1.9-0.8-2.8c-0.2-0.8-0.5-1.7-0.7-2.5
			c-0.1-0.2-0.1-0.3,0.2-0.3c0.3,0,0.6,0,0.9,0c0.2,0,0.2,0.1,0.3,0.2c0.3,1.1,0.6,2.3,0.9,3.4c0,0,0,0.1,0.1,0.2
			c0.1-0.4,0.2-0.8,0.3-1.2c0.2-0.8,0.5-1.6,0.7-2.4c0-0.2,0.1-0.2,0.3-0.2c0.2,0,0.4,0,0.7,0c0.2,0,0.2,0.1,0.3,0.2
			c0.3,1.1,0.7,2.3,1,3.4C49.3,28.9,49.3,28.9,49.3,29z"/>
		<path class="st1" d="M39.5,27c0.3-0.3,0.5-0.6,0.8-0.9c0.7-0.9,1.5-1.8,2.2-2.6c0.1-0.1,0.1-0.1,0.2-0.1c0.4,0,0.9,0,1.3,0
			c0.1,0,0.1,0,0.1,0c0,0.1,0,0.1-0.1,0.1c-0.8,1-1.7,1.9-2.5,2.9c-0.1,0.2-0.2,0.3,0,0.5c0.9,1.3,1.8,2.6,2.6,3.9
			c0,0.1,0.1,0.1,0.1,0.2c0,0.1-0.1,0-0.2,0c-0.4,0-0.7,0-1.1,0c-0.2,0-0.3-0.1-0.4-0.2c-0.7-1-1.3-1.9-2-2.9
			c-0.1-0.2-0.1-0.2-0.3,0c-0.2,0.3-0.5,0.5-0.7,0.8c-0.1,0.1-0.1,0.2-0.1,0.4c0,0.6,0,1.2,0,1.8c0,0.2-0.1,0.3-0.3,0.2
			c-0.3,0-0.6,0-0.9,0c-0.2,0-0.2-0.1-0.2-0.3c0-1.8,0-3.5,0-5.3c0-0.6,0-1.3,0-1.9c0-0.2,0.1-0.2,0.2-0.2c0.3,0,0.6,0,0.9,0
			c0.2,0,0.2,0.1,0.2,0.3c0,1.1,0,2.1,0,3.2C39.5,26.8,39.5,26.9,39.5,27z"/>
		<path class="st1" d="M31.2,30.2c0,0.2,0,0.4,0,0.6c0,0.1,0,0.2-0.2,0.2c-0.3,0-0.6,0-1,0c-0.1,0-0.2-0.1-0.2-0.2c0,0,0-0.1,0-0.1
			c0-2.4,0-4.9,0-7.3c0-0.3,0-0.3,0.3-0.3c0.3,0,0.5,0,0.8,0c0.3,0,0.3,0,0.3,0.3c0,0.8,0,1.6,0,2.4c0,0.1,0,0.1,0,0.3
			c0.1-0.1,0.2-0.2,0.3-0.3c0.9-1,2.5-0.8,3.2,0.2c0.4,0.5,0.6,1.1,0.6,1.8c0,0.6,0,1.3-0.2,1.8c-0.3,0.7-0.8,1.2-1.5,1.4
			c-0.8,0.2-1.5,0.1-2.1-0.5C31.4,30.4,31.3,30.3,31.2,30.2z M34,28.1c0-0.4-0.1-0.8-0.3-1.2c-0.4-0.8-1.4-0.9-2.1-0.3
			c-0.3,0.3-0.5,0.8-0.5,1.2c0,0.6,0,1.2,0.4,1.7c0.5,0.6,1.3,0.6,1.8,0.1C33.9,29.2,34,28.7,34,28.1z"/>
		<path class="st1" d="M29.4,28.1c0,1-0.3,1.9-1.2,2.5c-1.6,1.1-4,0.4-4.4-1.8c-0.2-0.9,0-1.9,0.6-2.6c0.9-1.2,2.8-1.4,4-0.4
			C29.1,26.3,29.4,27.1,29.4,28.1z M28,28.3c0-0.6-0.1-1-0.3-1.4c-0.5-0.9-1.8-1-2.4,0c-0.4,0.8-0.4,1.9,0.2,2.6
			c0.5,0.6,1.4,0.6,1.9,0.1C27.9,29.2,28,28.7,28,28.3z"/>
		<path class="st1" d="M53.4,28.1c0,0.9,0,1.7,0,2.6c0,0.3,0,0.3-0.3,0.3c-0.3,0-0.6,0-0.9,0c-0.2,0-0.2-0.1-0.2-0.2
			c0-1.8,0-3.6,0-5.4c0-0.2,0.1-0.2,0.2-0.2c0.3,0,0.6,0,0.9,0c0.2,0,0.3,0.1,0.3,0.2C53.4,26.3,53.4,27.2,53.4,28.1z"/>
		<path class="st1" d="M35.9,28.1c0-0.9,0-1.8,0-2.6c0-0.2,0.1-0.3,0.3-0.2c0.3,0,0.6,0,0.9,0c0.1,0,0.2,0.1,0.2,0.2
			c0,1.8,0,3.6,0,5.4c0,0.1-0.1,0.2-0.2,0.2c-0.3,0-0.6,0-0.9,0c-0.2,0-0.2-0.1-0.2-0.2C35.9,29.8,35.9,29,35.9,28.1z"/>
		<path class="st1" d="M36.5,24.4c-0.2,0-0.3,0-0.5,0c-0.1,0-0.2,0-0.2-0.2c0-0.3,0-0.6,0-0.9c0-0.1,0.1-0.2,0.2-0.2
			c0.3,0,0.7,0,1,0c0.1,0,0.2,0.1,0.2,0.2c0,0.3,0,0.6,0,0.8c0,0.1-0.1,0.2-0.2,0.2C36.9,24.4,36.7,24.4,36.5,24.4z"/>
		<path class="st1" d="M52.7,24.4c-0.2,0-0.3,0-0.5,0c-0.1,0-0.2,0-0.2-0.2c0-0.3,0-0.6,0-0.9c0-0.1,0.1-0.2,0.2-0.2
			c0.3,0,0.7,0,1,0c0.1,0,0.2,0.1,0.2,0.2c0,0.3,0,0.6,0,0.9c0,0.1-0.1,0.2-0.2,0.2C53,24.4,52.9,24.4,52.7,24.4z"/>
	</g>
</g>
</svg>
